# xmcd CD database file generated by Grip 2.91
# 
# Track frame offsets:
#       150
#       11530
#       24882
#       35032
#       52417
#       62307
#       75920
#       84670
#       95150
#       104882
#       116302
#       129477
#       146410
#       162330
#       174520
#       185232
#       197395
#       209837
#       220780
#       232560
# 
# Disc length: 3318 seconds
# 
# Revision: 3
# Processed by: cddbd v1.4b41PL1 Copyright (c) Steve Scherf et al.
# Submitted via: Grip 2.91
# 
DISCID=120cf414
DTITLE=John Lee Hooker - blues before sunrise
DYEAR=1900
DGENRE=
TTITLE0=Boom Boom
TTITLE1=Baby Lee
TTITLE2=Dimples
TTITLE3=Blues Before Sunrise
TTITLE4=Dusty Road
TTITLE5=I'm Goin' Upstairs
TTITLE6=Hobo Blues
TTITLE7=Old Time Shimmy
TTITLE8=Onions
TTITLE9=Hard Headed Woman
TTITLE10=I'm So Excited
TTITLE11=When My First Wife Left Me
TTITLE12=Thelma
TTITLE13=I'm In The Mood
TTITLE14=Let's Make It
TTITLE15=Whiskey and Wimmen
TTITLE16=Crawling King Snake
TTITLE17=No Shoes
TTITLE18=Little Wheel
TTITLE19=Process
EXTD=
EXTT0=
EXTT1=
EXTT2=
EXTT3=
EXTT4=
EXTT5=
EXTT6=
EXTT7=
EXTT8=
EXTT9=
EXTT10=
EXTT11=
EXTT12=
EXTT13=
EXTT14=
EXTT15=
EXTT16=
EXTT17=
EXTT18=
EXTT19=
PLAYORDER=
